<?xml version="1.0" encoding="utf-8"?><svg viewBox="0 0 1920 162" xmlns="http://www.w3.org/2000/svg" xmlns:xlink="http://www.w3.org/1999/xlink"><style>:root>svg{display:none}:root>svg:target{display:block}</style><svg viewBox="0 0 104 38" id="logo" xmlns="http://www.w3.org/2000/svg"><path d="M.1 36.8c0-.033.117-.5.35-1.4.233-.933.433-1.917.6-2.95a19.49 19.49 0 0 0 .25-3V8.55c0-.933-.083-1.917-.25-2.95a30.63 30.63 0 0 0-.6-2.95C.217 1.717.1 1.233.1 1.2V1h15.45c3.533 0 6.367.85 8.5 2.55 2.133 1.7 3.2 3.983 3.2 6.85 0 2.733-.9 4.9-2.7 6.5-1.767 1.567-4.167 2.517-7.2 2.85 3.033.767 5.283 2.517 6.75 5.25.533 1.033 1.15 2.267 1.85 3.7.7 1.433 1.233 2.533 1.6 3.3.4.733.9 1.55 1.5 2.45.6.867 1.25 1.65 1.95 2.35v.2h-7.95c-1-.933-2.633-4.05-4.9-9.35-1.8-4.2-4.1-6.617-6.9-7.25H7.9v9.05c0 1.5.4 3.95 1.2 7.35v.2h-9v-.2Zm7.8-18.35h5.25c2.233 0 3.95-.65 5.15-1.95 1.233-1.3 1.85-3.233 1.85-5.8 0-2.5-.583-4.433-1.75-5.8-1.167-1.4-2.833-2.1-5-2.1H7.9v15.65Zm1.2 1.85h.25c-.2 0-.35.017-.45.05a.82.82 0 0 0 .2-.05Zm24.053 14.95c.3-.9.567-1.733.8-2.5.233-.767.45-1.767.65-3 .233-1.233.35-2.367.35-3.4V8.6c0-.733-.083-1.533-.25-2.4-.167-.867-.35-1.583-.55-2.15-.2-.6-.416-1.2-.65-1.8l-.35-1.05V1h8.35l10.95 27.75L62.953 1h7.75v.2c0 .033-.117.517-.35 1.45a30.65 30.65 0 0 0-.6 2.95 18.557 18.557 0 0 0-.25 2.95v20.9c0 .933.084 1.933.25 3 .167 1.033.367 2.017.6 2.95.234.9.35 1.367.35 1.4v.2h-8.95v-.2c.8-3.4 1.2-5.85 1.2-7.35V7l-11.3 30h-2.3v-.05l-.45.05-11.75-29.85c-.033.3-.05.783-.05 1.45v17.75c0 1.033.1 2.167.3 3.4.233 1.233.467 2.233.7 3 .233.767.5 1.617.8 2.55.3.9.467 1.383.5 1.45V37h-6.75v-.25c.034-.067.2-.567.5-1.5Zm45.805-29.6C82.192 2.217 86.292.5 91.258.5c3.334 0 7.25.767 11.75 2.3v8.05h-.3c-3.633-5.5-7.25-8.25-10.85-8.25-2.933 0-5.4 1.583-7.4 4.75-1.966 3.133-2.95 7.017-2.95 11.65s1.017 8.55 3.05 11.75c2.067 3.167 4.517 4.75 7.35 4.75 1.834 0 3.683-.783 5.55-2.35 1.9-1.6 3.65-3.6 5.25-6h.3v8.15c-4.666 1.533-8.666 2.3-12 2.3-4.766 0-8.783-1.733-12.05-5.2-3.266-3.467-4.9-7.917-4.9-13.35 0-5.5 1.633-9.967 4.9-13.4Z"/></svg><svg viewBox="0 0 38 38" id="star" xmlns="http://www.w3.org/2000/svg"><path d="M18.74 0C16.152 14.055 14.055 16.152 0 18.74c14.055 2.588 16.152 4.685 18.74 18.74 2.585-14.055 4.685-16.152 18.744-18.74C23.424 16.152 21.325 14.055 18.74 0Z"/></svg><svg viewBox="0 0 34 34" id="stars" xmlns="http://www.w3.org/2000/svg"><path d="M12.493 0C10.768 9.37 9.37 10.768 0 12.493c9.37 1.725 10.768 3.123 12.493 12.493 1.724-9.37 3.123-10.768 12.496-12.493C15.616 10.768 14.217 9.37 12.493 0Z"/><path d="M26.054 17.581c-1.1 5.959-1.987 6.849-7.945 7.946 5.958 1.099 6.848 1.986 7.945 7.945 1.1-5.959 1.987-6.848 7.945-7.945-5.96-1.1-6.85-1.99-7.945-7.946Z" fill-opacity=".6"/></svg><svg viewBox="0 0 1168 100" id="wavy1" xmlns="http://www.w3.org/2000/svg"><path d="M1 49.567c64.755-64.756 129.511-64.756 194.267 0 64.755 64.755 129.511 64.755 194.266 0 64.756-64.756 129.511-64.756 194.267 0 64.755 64.755 129.511 64.755 194.266 0 64.756-64.756 129.512-64.756 194.267 0 64.757 64.755 129.507 64.755 194.267 0"/></svg><svg viewBox="0 0 1110 85" id="wavy2" xmlns="http://www.w3.org/2000/svg"><path d="M1 42.337c61.531-55.116 123.063-55.116 184.594 0 61.531 55.116 123.063 55.116 184.594 0 61.531-55.116 123.063-55.116 184.594 0 61.532 55.116 123.063 55.116 184.594 0 61.532-55.116 123.063-55.116 184.594 0 61.532 55.116 123.06 55.116 184.59 0"/></svg><svg viewBox="0 0 1920 162" id="wavy3" xmlns="http://www.w3.org/2000/svg"><path d="M1920 81c-106.67-106.667-213.33-106.667-320 0-106.67 106.667-213.33 106.667-320 0-106.67-106.667-213.33-106.667-320 0-106.667 106.667-213.333 106.667-320 0S426.667-25.667 320 81 106.667 187.667 0 81"/></svg></svg>